<svg xmlns="http://www.w3.org/2000/svg" width="1600" height="900" viewBox="0 0 1600 900">
  <defs>
    <linearGradient id="bg" x1="0" y1="0" x2="1" y2="1">
      <stop offset="0%" stop-color="#08152b"/>
      <stop offset="100%" stop-color="#12284a"/>
    </linearGradient>
    <linearGradient id="bar" x1="0" y1="0" x2="1" y2="0">
      <stop offset="0%" stop-color="#e7b83f"/>
      <stop offset="100%" stop-color="#ff9a3d"/>
    </linearGradient>
  </defs>
  <rect width="1600" height="900" fill="url(#bg)"/>
  <rect x="40" y="36" width="1520" height="72" rx="18" fill="#07111f" stroke="#d7ac41" stroke-opacity=".35"/>
  <text x="80" y="82" fill="#f7c948" font-size="36" font-family="Arial" font-weight="700">CRICKET 26 STYLE TEST SCOREBOARD</text>
  <text x="1260" y="82" fill="#9eb2d5" font-size="24" font-family="Arial">MATCH 1 • T20 LEAGUE</text>

  <rect x="60" y="140" width="1480" height="170" rx="26" fill="#0c1b33" stroke="#243c61"/>
  <rect x="90" y="172" width="650" height="106" rx="18" fill="#12345d"/>
  <rect x="860" y="172" width="650" height="106" rx="18" fill="#203558"/>
  <text x="120" y="218" fill="#9ec8ff" font-size="30" font-family="Arial" font-weight="700">MUMBAI INDIANS</text>
  <text x="120" y="258" fill="#ffffff" font-size="66" font-family="Arial" font-weight="800">182/6</text>
  <text x="410" y="258" fill="#a9bddb" font-size="28" font-family="Arial">20.0 overs</text>
  <text x="890" y="218" fill="#74d2ff" font-size="30" font-family="Arial" font-weight="700">CHENNAI SUPER KINGS</text>
  <text x="890" y="258" fill="#ffffff" font-size="66" font-family="Arial" font-weight="800">176/8</text>
  <text x="1185" y="258" fill="#a9bddb" font-size="28" font-family="Arial">20.0 overs</text>
  <rect x="560" y="282" width="480" height="34" rx="17" fill="url(#bar)"/>
  <text x="800" y="306" text-anchor="middle" fill="#201300" font-size="20" font-family="Arial" font-weight="700">Mumbai Indians won by 6 runs</text>

  <rect x="60" y="346" width="720" height="494" rx="24" fill="#0c1730" stroke="#223c63"/>
  <rect x="820" y="346" width="720" height="494" rx="24" fill="#0c1730" stroke="#223c63"/>
  <text x="100" y="398" fill="#f7c948" font-size="30" font-family="Arial" font-weight="700">Mumbai Indians Batting</text>
  <text x="860" y="398" fill="#f7c948" font-size="30" font-family="Arial" font-weight="700">Chennai Super Kings Batting</text>

  <text x="100" y="442" fill="#8ea5c7" font-size="20" font-family="Arial">Batter</text>
  <text x="520" y="442" fill="#8ea5c7" font-size="20" font-family="Arial">R</text>
  <text x="590" y="442" fill="#8ea5c7" font-size="20" font-family="Arial">B</text>
  <text x="655" y="442" fill="#8ea5c7" font-size="20" font-family="Arial">4s/6s</text>

  <text x="860" y="442" fill="#8ea5c7" font-size="20" font-family="Arial">Batter</text>
  <text x="1280" y="442" fill="#8ea5c7" font-size="20" font-family="Arial">R</text>
  <text x="1350" y="442" fill="#8ea5c7" font-size="20" font-family="Arial">B</text>
  <text x="1415" y="442" fill="#8ea5c7" font-size="20" font-family="Arial">4s/6s</text>

  <g fill="#eef4ff" font-family="Arial" font-size="24">
    <text x="100" y="492">Rohit Sharma</text><text x="520" y="492">44</text><text x="590" y="492">29</text><text x="655" y="492">5/2</text>
    <text x="100" y="542">Ishan Kishan</text><text x="520" y="542">36</text><text x="590" y="542">24</text><text x="655" y="542">4/1</text>
    <text x="100" y="592">Suryakumar Yadav</text><text x="520" y="592">51</text><text x="590" y="592">33</text><text x="655" y="592">6/2</text>
    <text x="100" y="642">Hardik Pandya</text><text x="520" y="642">27</text><text x="590" y="642">15</text><text x="655" y="642">2/1</text>
    <text x="100" y="692">Tim David</text><text x="520" y="692">16</text><text x="590" y="692">8</text><text x="655" y="692">1/1</text>
    <text x="100" y="742">Extras</text><text x="520" y="742">8</text><text x="590" y="742"> </text><text x="655" y="742">wd 5, lb 3</text>
  </g>

  <g fill="#eef4ff" font-family="Arial" font-size="24">
    <text x="860" y="492">Ruturaj Gaikwad</text><text x="1280" y="492">62</text><text x="1350" y="492">41</text><text x="1415" y="492">7/2</text>
    <text x="860" y="542">Rachin Ravindra</text><text x="1280" y="542">31</text><text x="1350" y="542">22</text><text x="1415" y="542">3/1</text>
    <text x="860" y="592">Shivam Dube</text><text x="1280" y="592">28</text><text x="1350" y="592">17</text><text x="1415" y="592">2/2</text>
    <text x="860" y="642">Ravindra Jadeja</text><text x="1280" y="642">19</text><text x="1350" y="642">14</text><text x="1415" y="642">1/1</text>
    <text x="860" y="692">MS Dhoni</text><text x="1280" y="692">14</text><text x="1350" y="692">9</text><text x="1415" y="692">1/1</text>
    <text x="860" y="742">Extras</text><text x="1280" y="742">9</text><text x="1415" y="742">wd 7, lb 2</text>
  </g>

  <text x="100" y="805" fill="#8ea5c7" font-size="22" font-family="Arial">Top Bowler: Jasprit Bumrah 4-0-24-3</text>
  <text x="860" y="805" fill="#8ea5c7" font-size="22" font-family="Arial">Top Bowler: Matheesha Pathirana 4-0-31-2</text>
</svg>
